<svg xmlns="http://www.w3.org/2000/svg" version="1.1" xmlns:xlink="http://www.w3.org/1999/xlink" width="1500" height="1500" viewBox="0 0 1500 1500"><rect width="1500" height="1500" x="0" y="0" id="background" stroke="transparent" fill="#ffb6c1"></rect><svg xml:space="preserve" width="1000" height="1000" data-version="2" data-id="lg_lnQoSUrMTyPmSi299B" viewBox="0 0 196 140" x="250" y="250"><rect width="100%" height="100%" fill="transparent"></rect><path fill="#fff" d="M193.784 138.38H2.216L98 1.62z"></path><path fill="#ffb5c0" d="M69.433 90.217c.038.676.08 1.36.131 2.06a4.559 3.712 0 0 0 9.1-.435 209.029 170.21 0 0 1-.107-1.677c-1.276.175-2.739.228-4.19.231-1.862 0-3.684-.095-4.934-.18m11.53-37.468c-2.81 1.375-5.723 4.002-7.82 8.352-2.34 4.815-3.91 11.777-3.918 22.288 0 1.71.048 3.523.137 5.425 1.218.086 3.098.191 5.005.191 1.474.002 2.965-.069 4.114-.241a166.854 135.867 0 0 1-.14-5.375c-.018-9.953 1.559-16.042 3.293-19.592.116-1.162.172-2.29.172-3.368a53.324 43.422 0 0 0-.843-7.68m45.105 36.067c.088-1.904.136-3.718.137-5.426-.024-14.002-2.77-21.752-6.515-26.41-1.608-1.989-3.45-3.36-5.22-4.229a53.29 43.393 0 0 0-.844 7.678 50.956 41.493 0 0 0 .173 3.387c.113.23.226.469.339.721 1.605 3.625 2.957 9.57 2.95 18.853.001 1.677-.046 3.475-.139 5.375 1.149.172 2.64.243 4.116.24 1.907 0 3.786-.104 5.003-.19m-.2 3.46c.05-.7.092-1.383.13-2.06-1.25.085-3.071.18-4.933.18-1.452-.002-2.914-.055-4.19-.23-.033.553-.066 1.106-.107 1.678a4.558 3.711 0 1 0 9.1.432m-28.15-5.66c-6.086-.006-12.831-1.42-15.41-2.015v47.582c0 3.168 3.155 5.735 7.044 5.735 3.89 0 7.044-2.567 7.044-5.735V94.212h2.64v37.971c0 3.168 3.155 5.735 7.044 5.735 3.89 0 7.044-2.567 7.044-5.735V84.601c-2.578.595-9.323 2.01-15.407 2.015"></path><path fill="#ffb5c0" d="M111.917 60.429a55.047 44.824 0 0 1 .965-8.342c-1.716-.593-3.193-.72-4.08-.718-.362 0-.637.02-.819.04h-1.909l-1.093 6.963-5.555-5.45 1.677-1.514H94.33l1.676 1.514-5.554 5.45-1.094-6.964h-1.91a6.415 5.224 0 0 0-.82-.04c-.888-.001-2.364.126-4.08.719a54.998 44.784 0 0 1 .966 8.341c0 2.757-.328 5.825-1.207 9.037v13.688c.833.198 2.518.581 4.661.966 3.086.554 7.1 1.106 10.748 1.104 3.647.002 7.661-.55 10.747-1.104a86.923 86.923 0 0 0 4.66-.965V69.467a34.215 34.215 0 0 1-1.207-9.038"></path><circle r="22.5" fill="#ffb5c0" transform="matrix(.5697 0 0 .4639 97.72 38.33)"></circle></svg></svg>